<svg xmlns="http://www.w3.org/2000/svg" width="1200" height="420" viewBox="0 0 1200 420" role="img" aria-labelledby="title desc">
  <title id="title">skilllab</title>
  <desc id="desc">SKILL UPKEEP</desc>
  <defs>
    <radialGradient id="bg" cx="0.32" cy="0.42" r="0.95" gradientUnits="userSpaceOnUse">
      <stop offset="0" stop-color="#15101F"/>
      <stop offset="0.55" stop-color="#0C0F16"/>
      <stop offset="1" stop-color="#0B0E11"/>
    </radialGradient>
    <linearGradient id="acc" x1="0" y1="0" x2="1" y2="0">
      <stop offset="0" stop-color="#7C5CFF"/>
      <stop offset="1" stop-color="#9B7BFF"/>
    </linearGradient>
    <linearGradient id="panel" x1="0" y1="0" x2="0" y2="1">
      <stop offset="0" stop-color="#161B26"/>
      <stop offset="1" stop-color="#10131B"/>
    </linearGradient>
  </defs>
  <rect width="1200" height="420" fill="url(#bg)"/>
  <rect x="598" y="56" width="1" height="312" fill="#222838"/>
  <text x="64" y="74" font-family="-apple-system,BlinkMacSystemFont,Segoe UI,sans-serif" font-size="12" letter-spacing="3" fill="#7C5CFF">SKILL UPKEEP</text>
  <text x="62" y="128" font-family="-apple-system,BlinkMacSystemFont,Segoe UI,sans-serif" font-size="50" font-weight="700" fill="#F4F6FB">skilllab</text>
  <rect x="64" y="146" width="52" height="4" rx="2" fill="url(#acc)"/>
<text x="64" y="176" font-family="-apple-system,BlinkMacSystemFont,Segoe UI,sans-serif" font-size="17" fill="#C7CEDB">Skill library upkeep —</text>
<text x="64" y="204" font-family="-apple-system,BlinkMacSystemFont,Segoe UI,sans-serif" font-size="17" fill="#C7CEDB">audit, merge, rename,</text>
<text x="64" y="232" font-family="-apple-system,BlinkMacSystemFont,Segoe UI,sans-serif" font-size="17" fill="#C7CEDB">delete, publish, critique</text>
<rect x="650" y="100" width="100" height="90" rx="10" fill="url(#panel)" stroke="#2A3350"/>
<rect x="668" y="120" width="64" height="10" rx="5" fill="#1C2230"/>
<rect x="668" y="142" width="44" height="8" rx="4" fill="#222838"/>
<rect x="768" y="100" width="100" height="90" rx="10" fill="url(#panel)" stroke="#2A3350"/>
<rect x="786" y="120" width="64" height="10" rx="5" fill="#1C2230"/>
<rect x="786" y="142" width="44" height="8" rx="4" fill="#222838"/>
<rect x="886" y="100" width="100" height="90" rx="10" fill="url(#panel)" stroke="#2A3350"/>
<rect x="904" y="120" width="64" height="10" rx="5" fill="#1C2230"/>
<rect x="904" y="142" width="44" height="8" rx="4" fill="#222838"/>
<rect x="1004" y="100" width="100" height="90" rx="10" fill="url(#panel)" stroke="#2A3350"/>
<rect x="1022" y="120" width="64" height="10" rx="5" fill="#1C2230"/>
<rect x="1022" y="142" width="44" height="8" rx="4" fill="#222838"/>
<rect x="650" y="210" width="100" height="90" rx="10" fill="url(#panel)" stroke="#2A3350"/>
<rect x="668" y="230" width="64" height="10" rx="5" fill="#1C2230"/>
<rect x="668" y="252" width="44" height="8" rx="4" fill="#222838"/>
<rect x="768" y="210" width="100" height="90" rx="10" fill="url(#panel)" stroke="#2A3350"/>
<rect x="786" y="230" width="64" height="10" rx="5" fill="#1C2230"/>
<rect x="786" y="252" width="44" height="8" rx="4" fill="#222838"/>
<rect x="886" y="210" width="100" height="90" rx="10" fill="url(#panel)" stroke="#2A3350"/>
<rect x="904" y="230" width="64" height="10" rx="5" fill="#1C2230"/>
<rect x="904" y="252" width="44" height="8" rx="4" fill="#222838"/>
<rect x="1004" y="210" width="100" height="90" rx="10" fill="url(#panel)" stroke="#2A3350"/>
<rect x="1022" y="230" width="64" height="10" rx="5" fill="#1C2230"/>
<rect x="1022" y="252" width="44" height="8" rx="4" fill="#222838"/>
<circle cx="1080" cy="250" r="34" fill="none" stroke="url(#acc)" stroke-width="4"/><line x1="1104" y1="274" x2="1130" y2="300" stroke="url(#acc)" stroke-width="6"/>
</svg>